<svg class="icon" viewBox="0 0 1024 1024" version="1.1" xmlns="http://www.w3.org/2000/svg" width="16" height="16"><path d="M802.4064 0H85.2992C38.2976 0 0 36.8128 0 81.9712v791.7568c0 45.0048 38.2976 82.0224 85.2992 82.0224H504.832a34.7136 34.7136 0 0 0 35.4304-34.0992 34.7136 34.7136 0 0 0-35.4304-34.048H85.2992a13.9776 13.9776 0 0 1-14.1824-13.6192V81.92c0-7.4752 6.4-13.6192 14.1824-13.6192h717.1072c7.7824 0 14.1312 6.144 14.1312 13.6192v404.2752c0 18.8928 15.872 34.0992 35.4816 34.0992a34.7136 34.7136 0 0 0 35.4304-34.0992V81.9712C887.7056 36.864 849.408 0 802.4064 0z" fill="green" p-id="5106"></path><path d="M782.592 632.9856c96.8704 0 175.7184 73.9328 175.7184 164.7104 0 90.7776-78.848 164.7104-175.7184 164.7104-96.8192 0-175.6672-73.9328-175.6672-164.7104 0-90.7776 78.848-164.7104 175.6672-164.7104z m0-61.5936c-133.3248 0-241.3568 101.2736-241.3568 226.304S649.216 1024 782.592 1024C915.968 1024 1024 922.7264 1024 797.696s-108.032-226.304-241.408-226.304z m-646.0416 12.0832c0 19.8656 17.2544 36.0448 38.4 36.0448h321.024c21.1456 0 38.4-16.1792 38.4-36.0448 0-19.8144-17.2544-36.0448-38.4-36.0448h-321.024c-21.1456 0-38.4 16.2304-38.4 36.0448z m0-171.3152c0 19.8656 17.2544 36.0448 38.4 36.0448h412.5184c21.1456 0 38.4-16.1792 38.4-36.0448 0-19.8656-17.2544-36.0448-38.4-36.0448H175.0016c-21.1968 0-38.4512 16.1792-38.4512 36.0448z m0-171.3152c0 19.8656 17.2544 36.0448 38.4 36.0448h503.7568c21.1456 0 38.4-16.1792 38.4-36.0448 0-19.8656-17.2544-36.0448-38.4-36.0448H175.0016c-21.1968 0-38.4512 16.1792-38.4512 36.0448z" fill="green" p-id="5107"></path><path d="M887.3472 783.4624a20.992 20.992 0 0 0-5.2736-16.0768l-72.9088-78.848a19.1488 19.1488 0 0 0-14.2848-5.888 30.5152 30.5152 0 0 0-21.1968 9.984c-10.9568 11.776-12.8 28.2624-4.2496 37.5808l23.1936 24.9856-82.0736-0.6656c-15.2576 0-27.648 13.312-27.904 29.5424 0 7.8336 2.8672 15.4112 7.936 21.0944a27.648 27.648 0 0 0 19.5584 8.9088l81.92 0.6144-23.6544 24.7808c-8.7552 9.3184-7.168 25.856 3.8912 37.7856 6.0928 6.5024 13.824 10.24 21.3504 10.24a18.7392 18.7392 0 0 0 14.08-5.888l71.0656-74.9568 1.024-1.024 1.6384-1.792a21.1968 21.1968 0 0 0 5.2736-16.0768c0.2048-0.6144 0.2048-1.28 0.2048-2.1504 0.6144-0.8704 0.6144-1.536 0.4096-2.1504z" fill="green" p-id="5108"></path></svg>