<svg class="icon" viewBox="0 0 1024 1024" version="1.1" xmlns="http://www.w3.org/2000/svg" width="13px" height="13px"><path d="M298.337 320.634l-55.116 48.677c-19.402-26.983-39.066-40.39-59.171-40.39-9.789 0-17.726 2.645-23.986 7.849-6.174 5.204-9.347 11.109-9.347 17.726 0 6.525 2.207 12.787 6.702 18.606 6.001 7.849 24.252 24.605 54.587 50.266 28.396 23.723 45.678 38.714 51.677 44.973 15.081 15.254 25.837 29.806 32.099 43.741 6.26 13.933 9.434 29.101 9.434 45.595 0 32.099-11.109 58.641-33.246 79.54-22.223 20.899-51.147 31.396-86.773 31.396-27.868 0-52.116-6.79-72.841-20.46-20.636-13.67-38.359-35.095-53.087-64.375l62.611-37.742c18.783 34.57 40.476 51.852 64.992 51.852 12.787 0 23.547-3.703 32.276-11.2 8.731-7.407 13.052-16.048 13.052-25.837 0-8.907-3.263-17.726-9.877-26.63-6.614-8.907-21.074-22.396-43.387-40.653-42.592-34.745-70.194-61.554-82.627-80.425s-18.606-37.742-18.606-56.527c0-27.158 10.316-50.443 31.042-69.842 20.636-19.402 46.207-29.103 76.545-29.103 19.489 0 38.097 4.499 55.823 13.581 17.542 8.908 36.678 25.398 57.227 49.386v0z" fill="green"></path><path d="M684.673 601.499l68.078 88.006h-88.182l-34.57-44.533c-28.57 15.695-60.495 23.455-95.591 23.455-58.729 0-107.585-20.283-146.474-60.758-38.89-40.476-58.288-88.801-58.288-144.798 0-37.389 9.082-71.783 27.158-103.087s42.945-56.174 74.69-74.605c31.657-18.429 65.699-27.69 102.029-27.69 55.555 0 103.174 20.017 143.035 60.141 39.86 40.036 59.79 88.89 59.79 146.563 0 53.088-17.283 98.765-51.677 137.303v0zM638.197 541.357c15.787-23.371 23.633-49.295 23.633-77.691 0-37.036-12.523-68.518-37.567-94.447-25.044-25.837-55.291-38.799-90.827-38.799-36.595 0-67.194 12.61-91.886 37.742-24.692 25.221-37.036 57.143-37.036 96.031 0 43.297 15.518 77.514 46.651 102.646 24.339 19.663 51.94 29.541 82.893 29.541 17.726 0 34.481-3.44 50.087-10.406l-70.018-90.124h88.801l35.275 45.503z" fill="green"></path><path d="M779.294 267.37h74.426v320.198h108.554v70.99h-182.981v-391.184z" fill="green"></path></svg>