<?xml version="1.0" standalone="no"?><?xml-stylesheet type="text/css" href="https://www.processon.com/themes/default/mind/icons/icons.css" ?><!DOCTYPE svg PUBLIC "-//W3C//DTD SVG 1.1//EN" "http://www.w3.org/Graphics/SVG/1.1/DTD/svg11.dtd"><svg xmlns="http://www.w3.org/2000/svg" xlink="http://www.w3.org/1999/xlink" id="mind-svg-con" version="1.1" width="1133px" height="605px" style="position: absolute; left: 0px; top: 0px; width: 1133px; height: 605px; background: transparent; z-index: 999;"><defs></defs><g id="svgbackgroundid"><defs></defs><rect x="0" y="0" width="1133" height="605" fill="transparent"></rect></g><g transform="translate(-9860, -9641)" id="sdjakdjak3"><defs></defs><g class="svg-topic-con" transform="translate(0.5,0.5)"><path part="right" sub="true" id="line_78afbd696e15" d="M 10000 9944 L 10000 9837.79296875 A 8 8 0 0 1 10008 9829.79296875 L 10170 9829.79296875" stroke="#2B4156" fill="none" stroke-width="3"></path><path part="right" sub="true" id="line_810c0e87be19" d="M 10000 9944 L 10000 10105.1953125 A 8 8 0 0 0 10008 10113.1953125 L 10170 10113.1953125" stroke="#2B4156" fill="none" stroke-width="3"></path></g><g class="svg-connection-con" transform="translate(0.5,0.5)"></g><g class="svg-freesums-con" transform="translate(0.5,0.5)"></g><g class="svg-freebos-con" transform="translate(0.5,0.5)"></g></g><g id="810c0e87be19"><rect x="310" y="455.2890625" rx="5px" ry="5px" width="79" height="32" style="fill: #FBC02D; stroke:none;"></rect><g><text text-anchor="start" align="top" anchor="start" font-size="14px" font-weight="bold" fill="rgb(43, 65, 86)" style="font-size:14px;font-family:阿里巴巴普惠;color:#2B4156;font-style:normal;text-align:left;font-weight:bold;font-style: normal;"><tspan x="322" y="476"><tspan>普通模式</tspan></tspan></text></g></g><g id="7efa938d3e9c"><rect x="425.109375" y="404.1640625" rx="5px" ry="5px" width="48" height="26" style="fill: transparent; stroke:none;"></rect><g><text text-anchor="start" align="top" anchor="start" font-size="12px" font-weight="bold" fill="rgb(0, 0, 0)" style="font-size:12px;font-family:阿里巴巴普惠;color:#000000;font-style:normal;text-align:left;font-weight:bold;font-style: normal;"><tspan x="434" y="419.15999999999997"><tspan>sql</tspan></tspan></text></g></g><g id="040debeca3ac"><rect x="509.109375" y="368" rx="5px" ry="5px" width="320" height="26" style="fill: transparent; stroke:none;"></rect><g><text text-anchor="start" align="top" anchor="start" font-size="12px" font-weight="bold" fill="rgb(0, 0, 0)" style="font-size:12px;font-family:阿里巴巴普惠;color:#000000;font-style:normal;text-align:left;font-weight:bold;font-style: normal;"><tspan x="518" y="383.15999999999997"><tspan>statement：手动输入SQL，并对输入的SQL进行规约检查</tspan></tspan></text></g></g><g id="ceac9c01688f"><rect x="509.109375" y="404.1640625" rx="5px" ry="5px" width="284" height="26" style="fill: transparent; stroke:none;"></rect><g><text text-anchor="start" align="top" anchor="start" font-size="12px" font-weight="bold" fill="rgb(0, 0, 0)" style="font-size:12px;font-family:阿里巴巴普惠;color:#000000;font-style:normal;text-align:left;font-weight:bold;font-style: normal;"><tspan x="518" y="419.15999999999997"><tspan>result：执行输入的SQL，返回执行结果及执行计划</tspan></tspan></text></g></g><g id="0146ef51cb75"><rect x="509.109375" y="440.328125" rx="5px" ry="5px" width="179" height="26" style="fill: transparent; stroke:none;"></rect><g><text text-anchor="start" align="top" anchor="start" font-size="12px" font-weight="bold" fill="rgb(0, 0, 0)" style="font-size:12px;font-family:阿里巴巴普惠;color:#000000;font-style:normal;text-align:left;font-weight:bold;font-style: normal;"><tspan x="518" y="455.15999999999997"><tspan>stress：对输入的SQL进行压测</tspan></tspan></text></g></g><g id="637e4229e865"><rect x="425.109375" y="512.65625" rx="5px" ry="5px" width="48" height="26" style="fill: transparent; stroke:none;"></rect><g><text text-anchor="start" align="top" anchor="start" font-size="12px" font-weight="bold" fill="rgb(0, 0, 0)" style="font-size:12px;font-family:阿里巴巴普惠;color:#000000;font-style:normal;text-align:left;font-weight:bold;font-style: normal;"><tspan x="434" y="528.1600000000001"><tspan>table</tspan></tspan></text></g></g><g id="4bc5ec6c7929"><rect x="509.109375" y="476.4921875" rx="5px" ry="5px" width="356" height="26" style="fill: transparent; stroke:none;"></rect><g><text text-anchor="start" align="top" anchor="start" font-size="12px" font-weight="bold" fill="rgb(0, 0, 0)" style="font-size:12px;font-family:阿里巴巴普惠;color:#000000;font-style:normal;text-align:left;font-weight:bold;font-style: normal;"><tspan x="518" y="492.15999999999997"><tspan>schema：SQL语句中包含表的元数据信息，并进行建表规约检查</tspan></tspan></text></g></g><g id="53d20688ea58"><rect x="509.109375" y="512.65625" rx="5px" ry="5px" width="331" height="26" style="fill: transparent; stroke:none;"></rect><g><text text-anchor="start" align="top" anchor="start" font-size="12px" font-weight="bold" fill="rgb(0, 0, 0)" style="font-size:12px;font-family:阿里巴巴普惠;color:#000000;font-style:normal;text-align:left;font-weight:bold;font-style: normal;"><tspan x="518" y="528.1600000000001"><tspan>index：SQL语句中包含表的索引信息，并进行索引规约检查</tspan></tspan></text></g></g><g id="6f2fd9a5f832"><rect x="509.109375" y="548.8203125" rx="5px" ry="5px" width="332" height="26" style="fill: transparent; stroke:none;"></rect><g><text text-anchor="start" align="top" anchor="start" font-size="12px" font-weight="bold" fill="rgb(0, 0, 0)" style="font-size:12px;font-family:阿里巴巴普惠;color:#000000;font-style:normal;text-align:left;font-weight:bold;font-style: normal;"><tspan x="518" y="564.1600000000001"><tspan>mock：SQL语句中包含表的数据mock，支持批量数据mock</tspan></tspan></text></g></g><g id="78afbd696e15"><rect x="310" y="171.5390625" rx="5px" ry="5px" width="104" height="32" style="fill: #FBC02D; stroke:none;"></rect><g><text text-anchor="start" align="top" anchor="start" font-size="14px" font-weight="bold" fill="rgb(43, 65, 86)" style="font-size:14px;font-family:阿里巴巴普惠;color:#2B4156;font-style:normal;text-align:left;font-weight:bold;font-style: normal;"><tspan x="322" y="192"><tspan>mybatis模式</tspan></tspan></text></g></g><g id="c43f47556e76"><rect x="450.3203125" y="48.078125" rx="5px" ry="5px" width="61" height="26" style="fill: transparent; stroke:none;"></rect><g><text text-anchor="start" align="top" anchor="start" font-size="12px" font-weight="bold" fill="rgb(0, 0, 0)" style="font-size:12px;font-family:阿里巴巴普惠;color:#000000;font-style:normal;text-align:left;font-weight:bold;font-style: normal;"><tspan x="459" y="63.16"><tspan>params</tspan></tspan></text></g></g><g id="cb60aaa98ac6"><rect x="547.390625" y="30" rx="5px" ry="5px" width="238" height="26" style="fill: transparent; stroke:none;"></rect><g><text text-anchor="start" align="top" anchor="start" font-size="12px" font-weight="bold" fill="rgb(0, 0, 0)" style="font-size:12px;font-family:阿里巴巴普惠;color:#000000;font-style:normal;text-align:left;font-weight:bold;font-style: normal;"><tspan x="556" y="45.16"><tspan>random：mapper方法对应的随机参数值</tspan></tspan></text></g></g><g id="94d986731923"><rect x="547.390625" y="66.1640625" rx="5px" ry="5px" width="234" height="26" style="fill: transparent; stroke:none;"></rect><g><text text-anchor="start" align="top" anchor="start" font-size="12px" font-weight="bold" fill="rgb(0, 0, 0)" style="font-size:12px;font-family:阿里巴巴普惠;color:#000000;font-style:normal;text-align:left;font-weight:bold;font-style: normal;"><tspan x="556" y="81.16"><tspan>default：mapper方法对应的默认参数值</tspan></tspan></text></g></g><g id="211a4a9f2cc0"><rect x="450.3203125" y="138.4921875" rx="5px" ry="5px" width="48" height="26" style="fill: transparent; stroke:none;"></rect><g><text text-anchor="start" align="top" anchor="start" font-size="12px" font-weight="bold" fill="rgb(0, 0, 0)" style="font-size:12px;font-family:阿里巴巴普惠;color:#000000;font-style:normal;text-align:left;font-weight:bold;font-style: normal;"><tspan x="459" y="154.16"><tspan>sql</tspan></tspan></text></g></g><g id="e50978691262"><rect x="534.3203125" y="102.328125" rx="5px" ry="5px" width="308" height="26" style="fill: transparent; stroke:none;"></rect><g><text text-anchor="start" align="top" anchor="start" font-size="12px" font-weight="bold" fill="rgb(0, 0, 0)" style="font-size:12px;font-family:阿里巴巴普惠;color:#000000;font-style:normal;text-align:left;font-weight:bold;font-style: normal;"><tspan x="543" y="117.16"><tspan>statement：生成实际的SQL语句，并进行SQL规范检查</tspan></tspan></text></g></g><g id="1e94c6bfec27"><rect x="534.3203125" y="138.4921875" rx="5px" ry="5px" width="308" height="26" style="fill: transparent; stroke:none;"></rect><g><text text-anchor="start" align="top" anchor="start" font-size="12px" font-weight="bold" fill="rgb(0, 0, 0)" style="font-size:12px;font-family:阿里巴巴普惠;color:#000000;font-style:normal;text-align:left;font-weight:bold;font-style: normal;"><tspan x="543" y="154.16"><tspan>result：执行生成的SQL语句，返回执行结果及执行计划</tspan></tspan></text></g></g><g id="c2eab1ffbfb6"><rect x="534.3203125" y="174.65625" rx="5px" ry="5px" width="297" height="26" style="fill: transparent; stroke:none;"></rect><g><text text-anchor="start" align="top" anchor="start" font-size="12px" font-weight="bold" fill="rgb(0, 0, 0)" style="font-size:12px;font-family:阿里巴巴普惠;color:#000000;font-style:normal;text-align:left;font-weight:bold;font-style: normal;"><tspan x="543" y="190.16"><tspan>stress：对生成的SQL语句进行压测，并输出压测报告</tspan></tspan></text></g></g><g id="897b9076f6ba"><rect x="450.3203125" y="246.984375" rx="5px" ry="5px" width="48" height="26" style="fill: transparent; stroke:none;"></rect><g><text text-anchor="start" align="top" anchor="start" font-size="12px" font-weight="bold" fill="rgb(0, 0, 0)" style="font-size:12px;font-family:阿里巴巴普惠;color:#000000;font-style:normal;text-align:left;font-weight:bold;font-style: normal;"><tspan x="459" y="262.15999999999997"><tspan>table</tspan></tspan></text></g></g><g id="b3e37cb6c6fd"><rect x="534.3203125" y="210.8203125" rx="5px" ry="5px" width="356" height="26" style="fill: transparent; stroke:none;"></rect><g><text text-anchor="start" align="top" anchor="start" font-size="12px" font-weight="bold" fill="rgb(0, 0, 0)" style="font-size:12px;font-family:阿里巴巴普惠;color:#000000;font-style:normal;text-align:left;font-weight:bold;font-style: normal;"><tspan x="543" y="226.16"><tspan>schema：SQL语句中包含表的元数据信息，并进行建表规约检查</tspan></tspan></text></g></g><g id="1fece5c92685"><rect x="534.3203125" y="246.984375" rx="5px" ry="5px" width="331" height="26" style="fill: transparent; stroke:none;"></rect><g><text text-anchor="start" align="top" anchor="start" font-size="12px" font-weight="bold" fill="rgb(0, 0, 0)" style="font-size:12px;font-family:阿里巴巴普惠;color:#000000;font-style:normal;text-align:left;font-weight:bold;font-style: normal;"><tspan x="543" y="262.15999999999997"><tspan>index：SQL语句中包含表的索引信息，并进行索引规约检查</tspan></tspan></text></g></g><g id="2c288bde24bd"><rect x="534.3203125" y="283.1484375" rx="5px" ry="5px" width="332" height="26" style="fill: transparent; stroke:none;"></rect><g><text text-anchor="start" align="top" anchor="start" font-size="12px" font-weight="bold" fill="rgb(0, 0, 0)" style="font-size:12px;font-family:阿里巴巴普惠;color:#000000;font-style:normal;text-align:left;font-weight:bold;font-style: normal;"><tspan x="543" y="298.15999999999997"><tspan>mock：SQL语句中包含表的数据mock，支持批量数据mock</tspan></tspan></text></g></g><g id="8fd54edbf3f5"><rect x="450.3203125" y="319.3125" rx="5px" ry="5px" width="652" height="26" style="fill: transparent; stroke:none;"></rect><g><text text-anchor="start" align="top" anchor="start" font-size="12px" font-weight="bold" fill="rgb(0, 0, 0)" style="font-size:12px;font-family:阿里巴巴普惠;color:#000000;font-style:normal;text-align:left;font-weight:bold;font-style: normal;"><tspan x="459" y="334.15999999999997"><tspan>project：扫描项目中mybatis编写的SQL语句，并对SQL语句进行SQL规范检查及索引检查；支持项目和文件两个维度扫描</tspan></tspan></text></g></g><g transform="translate(310, 368)" id="sdjakdjak0"><g id="subline_810c0e87be19" transform="translate(0.5, 0.5)"><path id="line_7efa938d3e9c" d="M 80 104.1953125 L 98 104.1953125 L 98 53.59765625 A 4 4 0 0 1 102 49.59765625 L 116 49.59765625" p="810c0e87be19" stroke="#2B4156" fill="none" stroke-linecap="square" stroke-width="2"></path><path id="line_040debeca3ac" d="M 164 49.59765625 L 182 49.59765625 L 182 17.19921875 A 4 4 0 0 1 186 13.19921875 L 200 13.19921875" p="7efa938d3e9c" stroke="#2B4156" fill="none" stroke-linecap="square" stroke-width="2"></path><path id="line_ceac9c01688f" d="M 164 49.59765625 L 182 49.59765625 L 182 49.59765625 L 200 49.59765625" p="7efa938d3e9c" stroke="#2B4156" fill="none" stroke-linecap="square" stroke-width="2"></path><path id="line_0146ef51cb75" d="M 164 49.59765625 L 182 49.59765625 L 182 81.99609375 A 4 4 0 0 0 186 85.99609375 L 200 85.99609375" p="7efa938d3e9c" stroke="#2B4156" fill="none" stroke-linecap="square" stroke-width="2"></path><path id="line_637e4229e865" d="M 80 104.1953125 L 98 104.1953125 L 98 154.79296875 A 4 4 0 0 0 102 158.79296875 L 116 158.79296875" p="810c0e87be19" stroke="#2B4156" fill="none" stroke-linecap="square" stroke-width="2"></path><path id="line_4bc5ec6c7929" d="M 164 158.79296875 L 182 158.79296875 L 182 126.39453125 A 4 4 0 0 1 186 122.39453125 L 200 122.39453125" p="637e4229e865" stroke="#2B4156" fill="none" stroke-linecap="square" stroke-width="2"></path><path id="line_53d20688ea58" d="M 164 158.79296875 L 182 158.79296875 L 182 158.79296875 L 200 158.79296875" p="637e4229e865" stroke="#2B4156" fill="none" stroke-linecap="square" stroke-width="2"></path><path id="line_6f2fd9a5f832" d="M 164 158.79296875 L 182 158.79296875 L 182 191.19140625 A 4 4 0 0 0 186 195.19140625 L 200 195.19140625" p="637e4229e865" stroke="#2B4156" fill="none" stroke-linecap="square" stroke-width="2"></path></g><g transform="translate(0.5,0.5)"></g><g class="svg-summary-con" transform="translate(0.5,0.5)"></g><g class="svg-boundary-con" transform="translate(0.5,0.5)"></g></g><g transform="translate(310, 30)" id="sdjakdjak1"><g id="subline_78afbd696e15" transform="translate(0.5, 0.5)"><path id="line_c43f47556e76" d="M 104.4453125 158.79296875 L 123 158.79296875 L 123 35.39453125 A 4 4 0 0 1 127 31.39453125 L 140.4453125 31.39453125" p="78afbd696e15" stroke="#2B4156" fill="none" stroke-linecap="square" stroke-width="2"></path><path id="line_cb60aaa98ac6" d="M 200.796875 31.39453125 L 219 31.39453125 L 219 17.19921875 A 4 4 0 0 1 223 13.19921875 L 236.796875 13.19921875" p="c43f47556e76" stroke="#2B4156" fill="none" stroke-linecap="square" stroke-width="2"></path><path id="line_94d986731923" d="M 200.796875 31.39453125 L 219 31.39453125 L 219 45.59765625 A 4 4 0 0 0 223 49.59765625 L 236.796875 49.59765625" p="c43f47556e76" stroke="#2B4156" fill="none" stroke-linecap="square" stroke-width="2"></path><path id="line_211a4a9f2cc0" d="M 104.4453125 158.79296875 L 123 158.79296875 L 123 126.39453125 A 4 4 0 0 1 127 122.39453125 L 140.4453125 122.39453125" p="78afbd696e15" stroke="#2B4156" fill="none" stroke-linecap="square" stroke-width="2"></path><path id="line_e50978691262" d="M 188.4453125 122.39453125 L 207 122.39453125 L 207 89.99609375 A 4 4 0 0 1 211 85.99609375 L 224.4453125 85.99609375" p="211a4a9f2cc0" stroke="#2B4156" fill="none" stroke-linecap="square" stroke-width="2"></path><path id="line_1e94c6bfec27" d="M 188.4453125 122.39453125 L 207 122.39453125 L 207 122.39453125 L 224.4453125 122.39453125" p="211a4a9f2cc0" stroke="#2B4156" fill="none" stroke-linecap="square" stroke-width="2"></path><path id="line_c2eab1ffbfb6" d="M 188.4453125 122.39453125 L 207 122.39453125 L 207 154.79296875 A 4 4 0 0 0 211 158.79296875 L 224.4453125 158.79296875" p="211a4a9f2cc0" stroke="#2B4156" fill="none" stroke-linecap="square" stroke-width="2"></path><path id="line_897b9076f6ba" d="M 104.4453125 158.79296875 L 123 158.79296875 L 123 227.58984375 A 4 4 0 0 0 127 231.58984375 L 140.4453125 231.58984375" p="78afbd696e15" stroke="#2B4156" fill="none" stroke-linecap="square" stroke-width="2"></path><path id="line_b3e37cb6c6fd" d="M 188.4453125 231.58984375 L 207 231.58984375 L 207 199.19140625 A 4 4 0 0 1 211 195.19140625 L 224.4453125 195.19140625" p="897b9076f6ba" stroke="#2B4156" fill="none" stroke-linecap="square" stroke-width="2"></path><path id="line_1fece5c92685" d="M 188.4453125 231.58984375 L 207 231.58984375 L 207 231.58984375 L 224.4453125 231.58984375" p="897b9076f6ba" stroke="#2B4156" fill="none" stroke-linecap="square" stroke-width="2"></path><path id="line_2c288bde24bd" d="M 188.4453125 231.58984375 L 207 231.58984375 L 207 263.98828125 A 4 4 0 0 0 211 267.98828125 L 224.4453125 267.98828125" p="897b9076f6ba" stroke="#2B4156" fill="none" stroke-linecap="square" stroke-width="2"></path><path id="line_8fd54edbf3f5" d="M 104.4453125 158.79296875 L 123 158.79296875 L 123 300.38671875 A 4 4 0 0 0 127 304.38671875 L 140.4453125 304.38671875" p="78afbd696e15" stroke="#2B4156" fill="none" stroke-linecap="square" stroke-width="2"></path></g><g transform="translate(0.5,0.5)"></g><g class="svg-summary-con" transform="translate(0.5,0.5)"></g><g class="svg-boundary-con" transform="translate(0.5,0.5)"></g></g><g transform="translate(30, 277)" id="sdjakdjak2"><g id="subline_root" transform="translate(0.5, 0.5)"></g><g transform="translate(0.5,0.5)"></g><g class="svg-summary-con" transform="translate(0.5,0.5)"></g><g class="svg-boundary-con" transform="translate(0.5,0.5)"></g></g><g id="root"><rect x="30" y="277" rx="5px" ry="5px" width="216" height="51" style="fill: #F57C00; stroke:none;"></rect><g><text text-anchor="start" align="top" anchor="start" font-size="20px" font-weight="bold" fill="rgb(255, 255, 255)" style="font-size:20px;font-family:阿里巴巴普惠;color:#ffffff;font-style:normal;text-align:left;font-weight:bold;font-style: normal;"><tspan x="46" y="308"><tspan>mybatis-sql-viewer</tspan></tspan></text></g></g></svg>