<?xml version="1.0" standalone="no"?><?xml-stylesheet type="text/css" href="https://www.processon.com/themes/default/mind/icons/icons.css" ?><!DOCTYPE svg PUBLIC "-//W3C//DTD SVG 1.1//EN" "http://www.w3.org/Graphics/SVG/1.1/DTD/svg11.dtd"><svg xmlns="http://www.w3.org/2000/svg" xlink="http://www.w3.org/1999/xlink" id="mind-svg-con" version="1.1" width="1413px" height="621px" style="position: absolute; left: 0px; top: 0px; width: 1413px; height: 621px; background: transparent; z-index: 999;"><defs></defs><g id="svgbackgroundid"><defs></defs><rect x="0" y="0" width="1413" height="621" fill="transparent"></rect></g><g transform="translate(-9860, -9633)" id="sdjakdjak3"><defs></defs><g class="svg-topic-con" transform="translate(0.5,0.5)"><path part="right" sub="true" id="line_78afbd696e15" d="M 9998 9943.5 L 9998 9836.453125 A 8 8 0 0 1 10006 9828.453125 L 10170 9828.453125" stroke="#2B4156" fill="none" stroke-width="3"></path><path part="right" sub="true" id="line_810c0e87be19" d="M 9998 9943.5 L 9998 10112.4921875 A 8 8 0 0 0 10006 10120.4921875 L 10170 10120.4921875" stroke="#2B4156" fill="none" stroke-width="3"></path></g><g class="svg-connection-con" transform="translate(0.5,0.5)"></g><g class="svg-freesums-con" transform="translate(0.5,0.5)"></g><g class="svg-freebos-con" transform="translate(0.5,0.5)"></g></g><g id="810c0e87be19"><rect x="310" y="471.2890625" rx="5px" ry="5px" width="151" height="32" style="fill: #FBC02D; stroke:none;"></rect><g><text text-anchor="start" align="top" anchor="start" font-size="14px" font-weight="bold" fill="rgb(43, 65, 86)" style="font-size:14px;font-family:阿里巴巴普惠;color:#2B4156;font-style:normal;text-align:left;font-weight:bold;"><tspan x="322" y="492"><tspan>non-mybatis mode</tspan></tspan></text></g></g><g id="7efa938d3e9c"><rect x="497.015625" y="420.1640625" rx="5px" ry="5px" width="38" height="26" style="fill: transparent; stroke:none;"></rect><g><text text-anchor="start" align="top" anchor="start" font-size="12px" font-weight="bold" fill="rgb(0, 0, 0)" style="font-size:12px;font-family:阿里巴巴普惠;color:#000000;font-style:normal;text-align:left;font-weight:bold;"><tspan x="506" y="435.15999999999997"><tspan>sql</tspan></tspan></text></g></g><g id="040debeca3ac"><rect x="571.015625" y="384" rx="5px" ry="5px" width="487" height="26" style="fill: transparent; stroke:none;"></rect><g><text text-anchor="start" align="top" anchor="start" font-size="12px" font-weight="bold" fill="rgb(0, 0, 0)" style="font-size:12px;font-family:阿里巴巴普惠;color:#000000;font-style:normal;text-align:left;font-weight:bold;"><tspan x="580" y="399.15999999999997"><tspan>statement：manually enter SQL and perform specification checks on the input SQL</tspan></tspan></text></g></g><g id="ceac9c01688f"><rect x="571.015625" y="420.1640625" rx="5px" ry="5px" width="503" height="26" style="fill: transparent; stroke:none;"></rect><g><text text-anchor="start" align="top" anchor="start" font-size="12px" font-weight="bold" fill="rgb(0, 0, 0)" style="font-size:12px;font-family:阿里巴巴普惠;color:#000000;font-style:normal;text-align:left;font-weight:bold;"><tspan x="580" y="435.15999999999997"><tspan>result：execute the SQL statement and return the execution result and execution plan</tspan></tspan></text></g></g><g id="0146ef51cb75"><rect x="571.015625" y="456.328125" rx="5px" ry="5px" width="482" height="26" style="fill: transparent; stroke:none;"></rect><g><text text-anchor="start" align="top" anchor="start" font-size="12px" font-weight="bold" fill="rgb(0, 0, 0)" style="font-size:12px;font-family:阿里巴巴普惠;color:#000000;font-style:normal;text-align:left;font-weight:bold;"><tspan x="580" y="471.15999999999997"><tspan>stress：perform load testing on the SQL statements and generate an stress report</tspan></tspan></text></g></g><g id="637e4229e865"><rect x="497.015625" y="528.65625" rx="5px" ry="5px" width="47" height="26" style="fill: transparent; stroke:none;"></rect><g><text text-anchor="start" align="top" anchor="start" font-size="12px" font-weight="bold" fill="rgb(0, 0, 0)" style="font-size:12px;font-family:阿里巴巴普惠;color:#000000;font-style:normal;text-align:left;font-weight:bold;"><tspan x="506" y="544.1600000000001"><tspan>table</tspan></tspan></text></g></g><g id="4bc5ec6c7929"><rect x="580.3984375" y="492.4921875" rx="5px" ry="5px" width="698" height="26" style="fill: transparent; stroke:none;"></rect><g><text text-anchor="start" align="top" anchor="start" font-size="12px" font-weight="bold" fill="rgb(0, 0, 0)" style="font-size:12px;font-family:阿里巴巴普惠;color:#000000;font-style:normal;text-align:left;font-weight:bold;"><tspan x="589" y="508.15999999999997"><tspan>schema：SQL statement contains metadata information of the table and performs table creation specification checking</tspan></tspan></text></g></g><g id="53d20688ea58"><rect x="580.3984375" y="528.65625" rx="5px" ry="5px" width="633" height="26" style="fill: transparent; stroke:none;"></rect><g><text text-anchor="start" align="top" anchor="start" font-size="12px" font-weight="bold" fill="rgb(0, 0, 0)" style="font-size:12px;font-family:阿里巴巴普惠;color:#000000;font-style:normal;text-align:left;font-weight:bold;"><tspan x="589" y="544.1600000000001"><tspan>index：SQL statement contains the index information of the table and conducts an index specification check</tspan></tspan></text></g></g><g id="6f2fd9a5f832"><rect x="580.3984375" y="564.8203125" rx="5px" ry="5px" width="519" height="26" style="fill: transparent; stroke:none;"></rect><g><text text-anchor="start" align="top" anchor="start" font-size="12px" font-weight="bold" fill="rgb(0, 0, 0)" style="font-size:12px;font-family:阿里巴巴普惠;color:#000000;font-style:normal;text-align:left;font-weight:bold;"><tspan x="589" y="580.1600000000001"><tspan>mock：SQL statements contain data mocking of tables and support batch data mocking</tspan></tspan></text></g></g><g id="78afbd696e15"><rect x="310" y="179.25" rx="5px" ry="5px" width="119" height="32" style="fill: #FBC02D; stroke:none;"></rect><g><text text-anchor="start" align="top" anchor="start" font-size="14px" font-weight="bold" fill="rgb(43, 65, 86)" style="font-size:14px;font-family:阿里巴巴普惠;color:#2B4156;font-style:normal;text-align:left;font-weight:bold;"><tspan x="322" y="200"><tspan>mybatis mode</tspan></tspan></text></g></g><g id="c43f47556e76"><rect x="464.8984375" y="48.078125" rx="5px" ry="5px" width="61" height="26" style="fill: transparent; stroke:none;"></rect><g><text text-anchor="start" align="top" anchor="start" font-size="12px" font-weight="bold" fill="rgb(0, 0, 0)" style="font-size:12px;font-family:阿里巴巴普惠;color:#000000;font-style:normal;text-align:left;font-weight:bold;"><tspan x="474" y="63.16"><tspan>params</tspan></tspan></text></g></g><g id="cb60aaa98ac6"><rect x="561.96875" y="30" rx="5px" ry="5px" width="440" height="26" style="fill: transparent; stroke:none;"></rect><g><text text-anchor="start" align="top" anchor="start" font-size="12px" font-weight="bold" fill="rgb(0, 0, 0)" style="font-size:12px;font-family:阿里巴巴普惠;color:#000000;font-style:normal;text-align:left;font-weight:bold;"><tspan x="571" y="45.16"><tspan>random：random parameter values corresponding to the mapper method</tspan></tspan></text></g></g><g id="94d986731923"><rect x="561.96875" y="66.1640625" rx="5px" ry="5px" width="432" height="26" style="fill: transparent; stroke:none;"></rect><g><text text-anchor="start" align="top" anchor="start" font-size="12px" font-weight="bold" fill="rgb(0, 0, 0)" style="font-size:12px;font-family:阿里巴巴普惠;color:#000000;font-style:normal;text-align:left;font-weight:bold;"><tspan x="571" y="81.16"><tspan>default：default parameter values corresponding to the mapper method</tspan></tspan></text></g></g><g id="211a4a9f2cc0"><rect x="464.8984375" y="138.4921875" rx="5px" ry="5px" width="38" height="26" style="fill: transparent; stroke:none;"></rect><g><text text-anchor="start" align="top" anchor="start" font-size="12px" font-weight="bold" fill="rgb(0, 0, 0)" style="font-size:12px;font-family:阿里巴巴普惠;color:#000000;font-style:normal;text-align:left;font-weight:bold;"><tspan x="474" y="154.16"><tspan>sql</tspan></tspan></text></g></g><g id="e50978691262"><rect x="538.8984375" y="102.328125" rx="5px" ry="5px" width="454" height="26" style="fill: transparent; stroke:none;"></rect><g><text text-anchor="start" align="top" anchor="start" font-size="12px" font-weight="bold" fill="rgb(0, 0, 0)" style="font-size:12px;font-family:阿里巴巴普惠;color:#000000;font-style:normal;text-align:left;font-weight:bold;"><tspan x="548" y="117.16"><tspan>statement：generate the actual SQL statement and perform SQL specs check</tspan></tspan></text></g></g><g id="1e94c6bfec27"><rect x="538.8984375" y="138.4921875" rx="5px" ry="5px" width="565" height="26" style="fill: transparent; stroke:none;"></rect><g><text text-anchor="start" align="top" anchor="start" font-size="12px" font-weight="bold" fill="rgb(0, 0, 0)" style="font-size:12px;font-family:阿里巴巴普惠;color:#000000;font-style:normal;text-align:left;font-weight:bold;"><tspan x="548" y="154.16"><tspan>result：execute the generated SQL statement and return the execution result and execution plan</tspan></tspan></text></g></g><g id="c2eab1ffbfb6"><rect x="538.8984375" y="174.65625" rx="5px" ry="5px" width="543" height="26" style="fill: transparent; stroke:none;"></rect><g><text text-anchor="start" align="top" anchor="start" font-size="12px" font-weight="bold" fill="rgb(0, 0, 0)" style="font-size:12px;font-family:阿里巴巴普惠;color:#000000;font-style:normal;text-align:left;font-weight:bold;"><tspan x="548" y="190.16"><tspan>stress：perform load testing on the generated SQL statements and generate an stress report</tspan></tspan></text></g></g><g id="897b9076f6ba"><rect x="464.8984375" y="246.984375" rx="5px" ry="5px" width="47" height="26" style="fill: transparent; stroke:none;"></rect><g><text text-anchor="start" align="top" anchor="start" font-size="12px" font-weight="bold" fill="rgb(0, 0, 0)" style="font-size:12px;font-family:阿里巴巴普惠;color:#000000;font-style:normal;text-align:left;font-weight:bold;"><tspan x="474" y="262.15999999999997"><tspan>table</tspan></tspan></text></g></g><g id="b3e37cb6c6fd"><rect x="548.28125" y="210.8203125" rx="5px" ry="5px" width="698" height="26" style="fill: transparent; stroke:none;"></rect><g><text text-anchor="start" align="top" anchor="start" font-size="12px" font-weight="bold" fill="rgb(0, 0, 0)" style="font-size:12px;font-family:阿里巴巴普惠;color:#000000;font-style:normal;text-align:left;font-weight:bold;"><tspan x="557" y="226.16"><tspan>schema：SQL statement contains metadata information of the table and performs table creation specification checking</tspan></tspan></text></g></g><g id="1fece5c92685"><rect x="548.28125" y="246.984375" rx="5px" ry="5px" width="633" height="26" style="fill: transparent; stroke:none;"></rect><g><text text-anchor="start" align="top" anchor="start" font-size="12px" font-weight="bold" fill="rgb(0, 0, 0)" style="font-size:12px;font-family:阿里巴巴普惠;color:#000000;font-style:normal;text-align:left;font-weight:bold;"><tspan x="557" y="262.15999999999997"><tspan>index：SQL statement contains the index information of the table and conducts an index specification check</tspan></tspan></text></g></g><g id="2c288bde24bd"><rect x="548.28125" y="283.1484375" rx="5px" ry="5px" width="519" height="26" style="fill: transparent; stroke:none;"></rect><g><text text-anchor="start" align="top" anchor="start" font-size="12px" font-weight="bold" fill="rgb(0, 0, 0)" style="font-size:12px;font-family:阿里巴巴普惠;color:#000000;font-style:normal;text-align:left;font-weight:bold;"><tspan x="557" y="298.15999999999997"><tspan>mock：SQL statements contain data mocking of tables and support batch data mocking</tspan></tspan></text></g></g><g id="8fd54edbf3f5"><rect x="464.8984375" y="319.3125" rx="5px" ry="5px" width="918" height="42" style="fill: transparent; stroke:none;"></rect><g><text text-anchor="start" align="top" anchor="start" font-size="12px" font-weight="bold" fill="rgb(0, 0, 0)" style="font-size:12px;font-family:阿里巴巴普惠;color:#000000;font-style:normal;text-align:left;font-weight:bold;"><tspan x="474" y="334.15999999999997"><tspan>project：scan the SQL statements written in mybatis in the project, and check the SQL statements for SQL specification and index usage. It supports scannin</tspan></tspan><tspan x="474" y="350.11999999999995"><tspan>g at both the project and file level</tspan></tspan></text></g></g><g transform="translate(310, 384)" id="sdjakdjak0"><g id="subline_810c0e87be19" transform="translate(0.5, 0.5)"><path id="line_7efa938d3e9c" d="M 151.015625 103.4921875 L 170 103.4921875 L 170 53.24609375 A 4 4 0 0 1 174 49.24609375 L 187.015625 49.24609375" p="810c0e87be19" stroke="#2B4156" fill="none" stroke-linecap="square" stroke-width="2"></path><path id="line_040debeca3ac" d="M 225.015625 49.24609375 L 244 49.24609375 L 244 17.08203125 A 4 4 0 0 1 248 13.08203125 L 261.015625 13.08203125" p="7efa938d3e9c" stroke="#2B4156" fill="none" stroke-linecap="square" stroke-width="2"></path><path id="line_ceac9c01688f" d="M 225.015625 49.24609375 L 244 49.24609375 L 244 49.24609375 L 261.015625 49.24609375" p="7efa938d3e9c" stroke="#2B4156" fill="none" stroke-linecap="square" stroke-width="2"></path><path id="line_0146ef51cb75" d="M 225.015625 49.24609375 L 244 49.24609375 L 244 81.41015625 A 4 4 0 0 0 248 85.41015625 L 261.015625 85.41015625" p="7efa938d3e9c" stroke="#2B4156" fill="none" stroke-linecap="square" stroke-width="2"></path><path id="line_637e4229e865" d="M 151.015625 103.4921875 L 170 103.4921875 L 170 153.73828125 A 4 4 0 0 0 174 157.73828125 L 187.015625 157.73828125" p="810c0e87be19" stroke="#2B4156" fill="none" stroke-linecap="square" stroke-width="2"></path><path id="line_4bc5ec6c7929" d="M 234.3984375 157.73828125 L 253 157.73828125 L 253 125.57421875 A 4 4 0 0 1 257 121.57421875 L 270.3984375 121.57421875" p="637e4229e865" stroke="#2B4156" fill="none" stroke-linecap="square" stroke-width="2"></path><path id="line_53d20688ea58" d="M 234.3984375 157.73828125 L 253 157.73828125 L 253 157.73828125 L 270.3984375 157.73828125" p="637e4229e865" stroke="#2B4156" fill="none" stroke-linecap="square" stroke-width="2"></path><path id="line_6f2fd9a5f832" d="M 234.3984375 157.73828125 L 253 157.73828125 L 253 189.90234375 A 4 4 0 0 0 257 193.90234375 L 270.3984375 193.90234375" p="637e4229e865" stroke="#2B4156" fill="none" stroke-linecap="square" stroke-width="2"></path></g><g transform="translate(0.5,0.5)"></g><g class="svg-summary-con" transform="translate(0.5,0.5)"></g><g class="svg-boundary-con" transform="translate(0.5,0.5)"></g></g><g transform="translate(310, 30)" id="sdjakdjak1"><g id="subline_78afbd696e15" transform="translate(0.5, 0.5)"><path id="line_c43f47556e76" d="M 118.8984375 165.453125 L 137 165.453125 L 137 35.16015625 A 4 4 0 0 1 141 31.16015625 L 154.8984375 31.16015625" p="78afbd696e15" stroke="#2B4156" fill="none" stroke-linecap="square" stroke-width="2"></path><path id="line_cb60aaa98ac6" d="M 215.96875 31.16015625 L 234 31.16015625 L 234 17.08203125 A 4 4 0 0 1 238 13.08203125 L 251.96875 13.08203125" p="c43f47556e76" stroke="#2B4156" fill="none" stroke-linecap="square" stroke-width="2"></path><path id="line_94d986731923" d="M 215.96875 31.16015625 L 234 31.16015625 L 234 45.24609375 A 4 4 0 0 0 238 49.24609375 L 251.96875 49.24609375" p="c43f47556e76" stroke="#2B4156" fill="none" stroke-linecap="square" stroke-width="2"></path><path id="line_211a4a9f2cc0" d="M 118.8984375 165.453125 L 137 165.453125 L 137 125.57421875 A 4 4 0 0 1 141 121.57421875 L 154.8984375 121.57421875" p="78afbd696e15" stroke="#2B4156" fill="none" stroke-linecap="square" stroke-width="2"></path><path id="line_e50978691262" d="M 192.8984375 121.57421875 L 211 121.57421875 L 211 89.41015625 A 4 4 0 0 1 215 85.41015625 L 228.8984375 85.41015625" p="211a4a9f2cc0" stroke="#2B4156" fill="none" stroke-linecap="square" stroke-width="2"></path><path id="line_1e94c6bfec27" d="M 192.8984375 121.57421875 L 211 121.57421875 L 211 121.57421875 L 228.8984375 121.57421875" p="211a4a9f2cc0" stroke="#2B4156" fill="none" stroke-linecap="square" stroke-width="2"></path><path id="line_c2eab1ffbfb6" d="M 192.8984375 121.57421875 L 211 121.57421875 L 211 153.73828125 A 4 4 0 0 0 215 157.73828125 L 228.8984375 157.73828125" p="211a4a9f2cc0" stroke="#2B4156" fill="none" stroke-linecap="square" stroke-width="2"></path><path id="line_897b9076f6ba" d="M 118.8984375 165.453125 L 137 165.453125 L 137 226.06640625 A 4 4 0 0 0 141 230.06640625 L 154.8984375 230.06640625" p="78afbd696e15" stroke="#2B4156" fill="none" stroke-linecap="square" stroke-width="2"></path><path id="line_b3e37cb6c6fd" d="M 202.28125 230.06640625 L 221 230.06640625 L 221 197.90234375 A 4 4 0 0 1 225 193.90234375 L 238.28125 193.90234375" p="897b9076f6ba" stroke="#2B4156" fill="none" stroke-linecap="square" stroke-width="2"></path><path id="line_1fece5c92685" d="M 202.28125 230.06640625 L 221 230.06640625 L 221 230.06640625 L 238.28125 230.06640625" p="897b9076f6ba" stroke="#2B4156" fill="none" stroke-linecap="square" stroke-width="2"></path><path id="line_2c288bde24bd" d="M 202.28125 230.06640625 L 221 230.06640625 L 221 262.23046875 A 4 4 0 0 0 225 266.23046875 L 238.28125 266.23046875" p="897b9076f6ba" stroke="#2B4156" fill="none" stroke-linecap="square" stroke-width="2"></path><path id="line_8fd54edbf3f5" d="M 118.8984375 165.453125 L 137 165.453125 L 137 306.109375 A 4 4 0 0 0 141 310.109375 L 154.8984375 310.109375" p="78afbd696e15" stroke="#2B4156" fill="none" stroke-linecap="square" stroke-width="2"></path></g><g transform="translate(0.5,0.5)"></g><g class="svg-summary-con" transform="translate(0.5,0.5)"></g><g class="svg-boundary-con" transform="translate(0.5,0.5)"></g></g><g transform="translate(30, 285)" id="sdjakdjak2"><g id="subline_root" transform="translate(0.5, 0.5)"></g><g transform="translate(0.5,0.5)"></g><g class="svg-summary-con" transform="translate(0.5,0.5)"></g><g class="svg-boundary-con" transform="translate(0.5,0.5)"></g></g><g id="root"><rect x="30" y="285" rx="5px" ry="5px" width="216" height="51" style="fill: #F57C00; stroke:none;"></rect><g><text text-anchor="start" align="top" anchor="start" font-size="20px" font-weight="bold" fill="rgb(255, 255, 255)" style="font-size:20px;font-family:阿里巴巴普惠;color:#ffffff;font-style:normal;text-align:left;font-weight:bold;"><tspan x="46" y="316"><tspan>mybatis-sql-viewer</tspan></tspan></text></g></g></svg>